<?xml version="1.0" encoding="utf-8"?>
<!-- Generator: Adobe Illustrator 17.0.0, SVG Export Plug-In . SVG Version: 6.00 Build 0)  -->
<!DOCTYPE svg PUBLIC "-//W3C//DTD SVG 1.1//EN" "http://www.w3.org/Graphics/SVG/1.1/DTD/svg11.dtd">
<svg version="1.1" id="Capa_1" xmlns="http://www.w3.org/2000/svg" xmlns:xlink="http://www.w3.org/1999/xlink" x="0px" y="0px"
	 width="549.698px" height="71.605px" viewBox="0 0 549.698 71.605" enable-background="new 0 0 549.698 71.605"
	 xml:space="preserve">
<g>
	<path fill="#FFFFFF" d="M41.153,0.386L28,54.799c-0.397,1.635-2.042,2.644-3.678,2.245c-1.635-0.395-2.639-2.038-2.245-3.675
		L34.985,0C15.585,0.471,0,16.305,0,35.816c0,18.189,13.558,33.182,31.109,35.513l13.299-55.004
		c0.394-1.639,2.041-2.637,3.676-2.246c1.633,0.398,2.639,2.043,2.242,3.673L37.311,71.605c19.128-0.762,34.42-16.478,34.42-35.789
		C71.731,17.808,58.443,2.947,41.153,0.386z"/>
	<g>
		<path fill="#FFFFFF" d="M101.988,21.265V3.364h4.301v17.659c0,4.469,2.191,6.46,6.218,6.46c4.015,0,6.252-1.991,6.252-6.46V3.364
			h4.267v17.901c0,6.698-4.553,10.074-10.519,10.074C106.494,31.339,101.988,27.963,101.988,21.265z"/>
		<path fill="#FFFFFF" d="M133.204,13.92h4.105l-0.081,3.166c1.055-2.231,3.211-3.534,5.764-3.534c3.778,0,6.372,2.681,6.372,7.313
			v10.106h-4.099v-9.784c0-2.434-1.136-3.859-3.529-3.859c-2.677,0-4.426,1.63-4.426,4.388v9.256h-4.105V13.92z"/>
		<path fill="#FFFFFF" d="M158.704,7.301c0-1.544,1.254-2.683,2.717-2.683c1.462,0,2.72,1.139,2.72,2.683
			c0,1.622-1.258,2.717-2.72,2.717C159.958,10.018,158.704,8.923,158.704,7.301z M159.349,13.92h4.147v17.05h-4.147V13.92z"/>
		<path fill="#FFFFFF" d="M171.732,13.92h4.547l3.458,7.552c0.647,1.422,1.178,3.697,1.178,3.697s0.481-2.275,1.094-3.697
			l3.448-7.552h4.186l-8.647,17.419h-0.531L171.732,13.92z"/>
		<path fill="#FFFFFF" d="M205.672,27.887c2.238,0,3.854-0.892,4.836-1.828l2.397,2.521c-1.588,1.586-3.777,2.759-7.189,2.759
			c-5.845,0-9.624-3.777-9.624-8.89c0-5.08,3.975-8.897,9.097-8.897c5.81,0,9.093,4.31,8.807,10.278h-13.722
			C200.764,26.304,202.552,27.887,205.672,27.887z M209.855,20.987c-0.361-2.317-1.781-4.024-4.625-4.024
			c-2.644,0-4.466,1.463-4.955,4.024H209.855z"/>
		<path fill="#FFFFFF" d="M223.173,13.92h4.093l-0.041,3.208c1.141-2.678,3.089-3.534,4.96-3.534c1.217,0,2.065,0.284,2.803,0.731
			l-1.381,3.695c-0.654-0.327-1.298-0.57-2.235-0.57c-2.436,0-4.107,1.422-4.107,5.241v8.279h-4.093V13.92z"/>
		<path fill="#FFFFFF" d="M241.193,27.802l2.802-1.947c1.061,1.503,2.644,2.194,4.592,2.194c2.067,0,3.005-0.691,3.005-1.83
			c0-1.376-1.258-1.581-4.141-2.39c-2.517-0.691-5.038-1.871-5.038-5.244c0-3.408,2.722-5.034,6.091-5.034
			c2.722,0,4.633,1.136,5.927,2.561l-2.394,2.355c-0.811-0.936-1.989-1.664-3.533-1.664c-1.544,0-2.39,0.565-2.39,1.581
			c0,1.298,1.051,1.586,3.731,2.275c2.678,0.692,5.603,1.745,5.603,5.361c0,2.92-1.788,5.319-6.615,5.319
			C244.934,31.339,242.332,29.637,241.193,27.802z"/>
		<path fill="#FFFFFF" d="M263.892,7.301c0-1.544,1.259-2.683,2.72-2.683c1.459,0,2.72,1.139,2.72,2.683
			c0,1.622-1.261,2.717-2.72,2.717C265.151,10.018,263.892,8.923,263.892,7.301z M264.537,13.92h4.146v17.05h-4.146V13.92z"/>
		<path fill="#FFFFFF" d="M278.016,22.404c0-5.155,3.579-8.853,7.917-8.853c3.006,0,4.797,1.383,5.935,3.333V1.657h4.139v29.312
			h-4.139l0.119-3.083c-1.056,2.07-3.125,3.452-5.972,3.452C281.595,31.339,278.016,27.562,278.016,22.404z M292.029,22.404
			c0-3.084-1.953-5.197-4.962-5.197c-2.952,0-4.826,2.113-4.826,5.197c0,3.206,1.874,5.317,4.826,5.317
			C290.076,27.721,292.029,25.61,292.029,22.404z"/>
		<path fill="#FFFFFF" d="M312.93,16.963c-2.231,0-3.529,0.977-4.464,2.033l-2.355-2.394c1.503-1.793,3.535-3.052,7.149-3.052
			c4.098,0,7.186,2.317,7.186,7.348v10.07h-4.1l0.122-2.431c-1.22,1.826-2.844,2.8-5.359,2.8c-3.374,0-6.135-1.586-6.135-5.405
			c0-3.529,2.842-5.07,6.698-5.11h4.674C316.346,18.103,315.129,16.963,312.93,16.963z M311.958,23.665
			c-1.786,0-2.962,0.65-2.962,2.155c0,1.457,1.136,2.229,3.248,2.229c2.394,0,4.102-1.181,4.102-3.047v-1.337H311.958z"/>
		<path fill="#FFFFFF" d="M329.494,22.404c0-5.155,3.578-8.853,7.924-8.853c3,0,4.787,1.383,5.925,3.333V1.657h4.14v29.312h-4.14
			l0.122-3.083c-1.055,2.07-3.128,3.452-5.967,3.452C333.072,31.339,329.494,27.562,329.494,22.404z M343.505,22.404
			c0-3.084-1.952-5.197-4.958-5.197c-2.959,0-4.828,2.113-4.828,5.197c0,3.206,1.869,5.317,4.828,5.317
			C341.553,27.721,343.505,25.61,343.505,22.404z"/>
		<path fill="#FFFFFF" d="M378.662,14.854c-1.102-1.18-2.602-3.088-2.602-3.088s0.286,2.272,0.286,3.983v15.22h-3.978V3.078h0.567
			l15.223,16.364c1.063,1.136,2.563,3.081,2.563,3.081s-0.286-2.434-0.286-3.98V3.364h3.978v27.897h-0.526L378.662,14.854z"/>
		<path fill="#FFFFFF" d="M411.665,16.963c-2.231,0-3.529,0.977-4.469,2.033l-2.35-2.394c1.503-1.793,3.528-3.052,7.149-3.052
			c4.097,0,7.184,2.317,7.184,7.348v10.07h-4.103l0.12-2.431c-1.217,1.826-2.837,2.8-5.354,2.8c-3.374,0-6.131-1.586-6.131-5.405
			c0-3.529,2.841-5.07,6.698-5.11h4.667C415.076,18.103,413.857,16.963,411.665,16.963z M410.695,23.665
			c-1.793,0-2.964,0.65-2.964,2.155c0,1.457,1.134,2.229,3.247,2.229c2.397,0,4.098-1.181,4.098-3.047v-1.337H410.695z"/>
		<path fill="#FFFFFF" d="M428.187,22.448c0-5.08,3.897-8.897,9.097-8.897c3.208,0,5.282,1.222,6.905,3.252l-2.92,2.355
			c-0.818-1.178-2.24-1.994-3.985-1.994c-3.044,0-4.872,2.233-4.872,5.285c0,3.044,1.828,5.273,4.872,5.273
			c2.026,0,3.248-0.853,4.179-1.901l2.81,2.429c-1.667,1.916-3.7,3.089-6.989,3.089C432.083,31.339,428.187,27.562,428.187,22.448z"
			/>
		<path fill="#FFFFFF" d="M452.463,7.301c0-1.544,1.258-2.683,2.725-2.683c1.461,0,2.72,1.139,2.72,2.683
			c0,1.622-1.259,2.717-2.72,2.717C453.721,10.018,452.463,8.923,452.463,7.301z M453.116,13.92h4.142v17.05h-4.142V13.92z"/>
		<path fill="#FFFFFF" d="M466.55,22.448c0-5.08,4.061-8.897,9.222-8.897c5.195,0,9.173,3.817,9.173,8.897
			c0,5.078-3.978,8.89-9.173,8.89C470.611,31.339,466.55,27.526,466.55,22.448z M480.726,22.448c0-3.128-1.911-5.321-4.953-5.321
			c-3.045,0-4.997,2.192-4.997,5.321c0,3.121,1.952,5.354,4.997,5.354C478.814,27.802,480.726,25.569,480.726,22.448z"/>
		<path fill="#FFFFFF" d="M494.119,13.92h4.102l-0.081,3.166c1.053-2.231,3.206-3.534,5.764-3.534c3.778,0,6.373,2.681,6.373,7.313
			v10.106h-4.102v-9.784c0-2.434-1.133-3.859-3.53-3.859c-2.68,0-4.425,1.63-4.425,4.388v9.256h-4.102V13.92z"/>
		<path fill="#FFFFFF" d="M527.044,16.963c-2.231,0-3.533,0.977-4.466,2.033l-2.353-2.394c1.5-1.793,3.526-3.052,7.14-3.052
			c4.11,0,7.189,2.317,7.189,7.348v10.07h-4.103l0.125-2.431c-1.217,1.826-2.846,2.8-5.359,2.8c-3.374,0-6.131-1.586-6.131-5.405
			c0-3.529,2.839-5.07,6.697-5.11h4.669C530.451,18.103,529.234,16.963,527.044,16.963z M526.069,23.665
			c-1.786,0-2.962,0.65-2.962,2.155c0,1.457,1.139,2.229,3.249,2.229c2.397,0,4.096-1.181,4.096-3.047v-1.337H526.069z"/>
		<path fill="#FFFFFF" d="M544.584,1.657h4.1v29.312h-4.1V1.657z"/>
		<path fill="#FFFFFF" d="M100.485,60.969c0-5.154,3.57-8.851,7.915-8.851c3.006,0,4.796,1.38,5.934,3.333v-15.23h4.14v29.317h-4.14
			l0.122-3.084c-1.058,2.068-3.131,3.448-5.975,3.448C104.055,69.902,100.485,66.132,100.485,60.969z M114.487,60.969
			c0-3.081-1.943-5.193-4.949-5.193c-2.966,0-4.828,2.113-4.828,5.193c0,3.21,1.862,5.322,4.828,5.322
			C112.544,66.291,114.487,64.179,114.487,60.969z"/>
		<path fill="#FFFFFF" d="M136.451,66.454c2.237,0,3.856-0.894,4.835-1.826l2.397,2.519c-1.587,1.583-3.778,2.756-7.189,2.756
			c-5.845,0-9.626-3.77-9.626-8.889c0-5.073,3.981-8.896,9.1-8.896c5.807,0,9.094,4.305,8.808,10.277h-13.725
			C131.542,64.871,133.329,66.454,136.451,66.454z M140.637,59.559c-0.361-2.321-1.784-4.027-4.628-4.027
			c-2.642,0-4.466,1.457-4.957,4.027H140.637z"/>
		<path fill="#FFFFFF" d="M166.009,55.737c0-8.247,5.966-14.131,14.169-14.131c4.227,0,7.557,1.176,9.786,3.694l-2.883,2.883
			c-1.585-1.661-3.612-2.719-6.903-2.719c-5.766,0-9.784,4.381-9.784,10.274c0,5.889,4.061,10.309,10.316,10.309
			c2.842,0,5.28-0.728,6.817-1.781v-4.879h-7.43v-3.773h11.372v10.756c-1.786,1.628-5.605,3.533-10.759,3.533
			C172.1,69.902,166.009,63.979,166.009,55.737z"/>
		<path fill="#FFFFFF" d="M209.208,66.454c2.231,0,3.853-0.894,4.829-1.826l2.394,2.519c-1.581,1.583-3.775,2.756-7.186,2.756
			c-5.85,0-9.625-3.77-9.625-8.889c0-5.073,3.98-8.896,9.097-8.896c5.811,0,9.099,4.305,8.809,10.277h-13.718
			C204.294,64.871,206.08,66.454,209.208,66.454z M213.387,59.559c-0.362-2.321-1.784-4.027-4.625-4.027
			c-2.642,0-4.469,1.457-4.955,4.027H213.387z"/>
		<path fill="#FFFFFF" d="M225.928,52.485h4.102l-0.081,3.166c1.058-2.235,3.209-3.533,5.771-3.533c3.775,0,6.372,2.681,6.372,7.316
			v10.104h-4.103v-9.786c0-2.434-1.136-3.858-3.53-3.858c-2.68,0-4.428,1.63-4.428,4.388v9.256h-4.102V52.485z"/>
		<path fill="#FFFFFF" d="M259.908,66.454c2.235,0,3.856-0.894,4.841-1.826l2.394,2.519c-1.588,1.583-3.784,2.756-7.193,2.756
			c-5.847,0-9.622-3.77-9.622-8.889c0-5.073,3.976-8.896,9.09-8.896c5.811,0,9.1,4.305,8.816,10.277h-13.723
			C254.999,64.871,256.78,66.454,259.908,66.454z M264.093,59.559c-0.366-2.321-1.789-4.027-4.633-4.027
			c-2.636,0-4.46,1.457-4.948,4.027H264.093z"/>
		<path fill="#FFFFFF" d="M276.635,52.485h4.103l-0.042,3.211c1.141-2.68,3.084-3.538,4.955-3.538c1.217,0,2.072,0.286,2.8,0.731
			l-1.383,3.7c-0.643-0.328-1.298-0.572-2.229-0.572c-2.434,0-4.1,1.425-4.1,5.236v8.284h-4.103V52.485z"/>
		<path fill="#FFFFFF" d="M302.13,55.532c-2.235,0-3.53,0.975-4.464,2.03l-2.358-2.394c1.501-1.789,3.538-3.05,7.149-3.05
			c4.102,0,7.189,2.316,7.189,7.352v10.069h-4.1l0.12-2.434c-1.215,1.83-2.842,2.798-5.363,2.798c-3.37,0-6.128-1.578-6.128-5.396
			c0-3.536,2.839-5.072,6.697-5.119h4.674C305.546,56.666,304.327,55.532,302.13,55.532z M301.158,62.23
			c-1.786,0-2.966,0.653-2.966,2.153c0,1.463,1.143,2.238,3.252,2.238c2.393,0,4.102-1.183,4.102-3.047V62.23H301.158z"/>
		<path fill="#FFFFFF" d="M318.899,40.221H323v29.317h-4.102V40.221z"/>
		<path fill="#FFFFFF" d="M344.023,64.179l3.535-1.948c1.302,2.153,2.966,3.859,6.334,3.859c2.803,0,4.796-1.501,4.796-3.778
			c0-2.397-1.625-3.45-4.632-4.787l-1.825-0.816c-4.02-1.786-6.46-3.819-6.46-8.081c0-4.1,3.171-7.022,7.758-7.022
			c3.655,0,6.131,1.378,7.797,4.342l-3.374,2.074c-1.055-1.832-2.272-2.685-4.423-2.685c-2.19,0-3.575,1.344-3.575,3.209
			c0,2.072,1.18,3.003,3.975,4.224l1.793,0.814c4.711,2.067,7.226,4.259,7.226,8.689c0,4.831-3.77,7.629-8.974,7.629
			C348.741,69.902,345.572,67.308,344.023,64.179z"/>
		<path fill="#FFFFFF" d="M378.371,55.532c-2.233,0-3.528,0.975-4.462,2.03l-2.353-2.394c1.495-1.789,3.53-3.05,7.144-3.05
			c4.102,0,7.189,2.316,7.189,7.352v10.069h-4.102l0.118-2.434c-1.214,1.83-2.842,2.798-5.354,2.798
			c-3.375,0-6.136-1.578-6.136-5.396c0-3.536,2.842-5.072,6.7-5.119h4.672C381.787,56.666,380.57,55.532,378.371,55.532z
			 M377.4,62.23c-1.787,0-2.964,0.653-2.964,2.153c0,1.463,1.139,2.238,3.252,2.238c2.392,0,4.1-1.183,4.1-3.047V62.23H377.4z"/>
		<path fill="#FFFFFF" d="M394.978,52.485h4.102l-0.042,3.211c1.138-2.68,3.086-3.538,4.957-3.538c1.215,0,2.07,0.286,2.805,0.731
			l-1.388,3.7c-0.647-0.328-1.3-0.572-2.231-0.572c-2.434,0-4.1,1.425-4.1,5.236v8.284h-4.102V52.485z"/>
		<path fill="#FFFFFF" d="M414.179,52.485h4.102l-0.081,2.923c1.141-2.148,2.885-3.291,5.077-3.291c2.477,0,4.102,1.175,4.992,3.253
			c1.344-2.035,3.379-3.253,5.85-3.253c4.02,0,6.414,2.681,6.414,7.025v10.395h-4.102v-9.979c0-2.36-0.853-3.665-3.208-3.665
			c-2.393,0-3.819,1.462-3.819,4.31v9.334h-4.1v-9.979c0-2.36-0.809-3.665-3.167-3.665c-2.434,0-3.856,1.462-3.856,4.31v9.334
			h-4.102V52.485z"/>
		<path fill="#FFFFFF" d="M449.093,45.868c0-1.544,1.263-2.68,2.717-2.68c1.467,0,2.725,1.136,2.725,2.68
			c0,1.622-1.258,2.715-2.725,2.715C450.355,48.583,449.093,47.489,449.093,45.868z M449.743,52.485h4.146v17.053h-4.146V52.485z"/>
		<path fill="#FFFFFF" d="M471.992,66.454c2.235,0,3.856-0.894,4.836-1.826l2.393,2.519c-1.588,1.583-3.778,2.756-7.193,2.756
			c-5.845,0-9.62-3.77-9.62-8.889c0-5.073,3.98-8.896,9.094-8.896c5.808,0,9.097,4.305,8.809,10.277h-13.723
			C467.083,64.871,468.864,66.454,471.992,66.454z M476.175,59.559c-0.367-2.321-1.786-4.027-4.628-4.027
			c-2.639,0-4.464,1.457-4.958,4.027H476.175z"/>
		<path fill="#FFFFFF" d="M488.719,52.485h4.102l-0.085,3.166c1.056-2.235,3.21-3.533,5.771-3.533c3.772,0,6.373,2.681,6.373,7.316
			v10.104h-4.105v-9.786c0-2.434-1.136-3.858-3.529-3.858c-2.68,0-4.425,1.63-4.425,4.388v9.256h-4.102V52.485z"/>
		<path fill="#FFFFFF" d="M515.062,63.779V55.94h-2.556v-3.455h2.556v-8.894h4.098v8.894h4.55v3.455h-4.55v7.915
			c0,1.947,0.653,2.514,1.711,2.514c0.972,0,1.581-0.442,2.033-0.809l1.945,2.764c-0.848,0.811-2.192,1.627-4.383,1.627
			C517.259,69.951,515.062,68.324,515.062,63.779z"/>
		<path fill="#FFFFFF" d="M531.304,61.013c0-5.073,4.059-8.896,9.214-8.896c5.202,0,9.18,3.822,9.18,8.896
			c0,5.077-3.978,8.889-9.18,8.889C535.364,69.902,531.304,66.09,531.304,61.013z M545.478,61.013c0-3.125-1.908-5.317-4.96-5.317
			c-3.045,0-4.99,2.192-4.99,5.317c0,3.127,1.945,5.356,4.99,5.356C543.57,66.369,545.478,64.14,545.478,61.013z"/>
	</g>
</g>
</svg>
